<?xml version="1.0" encoding="UTF-8" standalone="no"?>
<svg width="60px" height="60px" viewBox="0 0 60 60" version="1.1" xmlns="http://www.w3.org/2000/svg" xmlns:xlink="http://www.w3.org/1999/xlink" xmlns:sketch="http://www.bohemiancoding.com/sketch/ns">
    <!-- Generator: Sketch 3.2.2 (9983) - http://www.bohemiancoding.com/sketch -->
    <title>Heavyrain</title>
    <desc>Created with Sketch.</desc>
    <defs></defs>
    <g id="stroked" stroke="none" stroke-width="1" fill="none" fill-rule="evenodd" sketch:type="MSPage">
        <g id="Weather" sketch:type="MSLayerGroup" transform="translate(-126.000000, -596.000000)" stroke="#535353" stroke-width="2" stroke-linecap="round" stroke-linejoin="round">
            <g id="Heavyrain" transform="translate(130.000000, 602.000000)" sketch:type="MSShapeGroup">
                <path d="M17.3918591,40.3268237 L12.8760901,48.1483652" id="Line-54"></path>
                <path d="M23.3918591,40.3268237 L18.8760901,48.1483652" id="Line-58"></path>
                <path d="M29.3918591,40.3268237 L24.8760901,48.1483652" id="Line-59"></path>
                <path d="M35.3918591,40.3268237 L30.8760901,48.1483652" id="Line-60"></path>
                <path d="M41.3918591,40.3268237 L36.8760901,48.1483652" id="Line-62"></path>
                <path d="M4.10779571,21.8929173 C4.04884592,21.3176309 4,20.6702744 4,20.5 C4,14.1487254 9.14872538,9 15.5,9 C15.8822344,9 16.2601133,9.01864822 16.6327764,9.0550845 C18.3673696,3.8040547 23.4723563,0 29.5,0 C36.9558441,0 43,5.82029825 43,13 C43.1655762,13.0043463 43.3322805,13 43.5,13 C48.7467051,13 53,17.2532949 53,22.5 C53,27.5802146 49.0123568,31.7290652 43.9963665,31.9872557 C43.9963665,31.9872557 36.5399555,31.9961748 30.9828029,31.9990901" id="Oval-45"></path>
                <path d="M7.59384712,35.9932434 C7.48830205,35.9977324 7.38217418,36 7.2755102,36 C3.25735687,36 0,32.7820466 0,28.8125 C0,24.8429534 3.25735687,21.625 7.2755102,21.625 C7.51733197,21.625 7.75639819,21.6366551 7.99216469,21.6594278 C9.08956034,18.3775342 12.3192458,16 16.1326531,16 C20.8496157,16 24.6734694,19.6376864 24.6734694,24.125 C24.6734694,24.1276946 24.673468,24.1303888 24.6734653,24.1330827 C24.7782217,24.1277164 24.8836877,24.125 24.9897959,24.125 C28.30914,24.125 31,26.7833093 31,30.0625 C31,33.2376341 28.4772053,35.8306657 25.3038237,35.9920348 L25.3061224,36 L7.59183673,36 L7.59384712,35.9932434 Z" id="Oval-30"></path>
            </g>
        </g>
    </g>
</svg>