<?xml version="1.0" encoding="iso-8859-1"?>
<!DOCTYPE svg PUBLIC "-//W3C//DTD SVG 1.1//EN" "http://www.w3.org/Graphics/SVG/1.1/DTD/svg11.dtd">
<svg 
 version="1.1" xmlns="http://www.w3.org/2000/svg" xmlns:xlink="http://www.w3.org/1999/xlink" x="0px" y="0px" width="512px"
	 height="512px" viewBox="0 0 512 512" enable-background="new 0 0 512 512" xml:space="preserve"
><g id="b75708d097f2188dff6617b0f00bcd33"><g></g><path display="inline" d="M423.064,234.227c2.079-7.369,3.269-15.108,3.269-23.139c0-47.037-38.129-80.908-85.166-80.908
		c-15.782,0-30.512,3.884-43.183,10.729c-22.968-32.674-61.808-53.313-105.859-53.313c-70.554,0-127.75,52.938-127.75,123.491
		c0,8.999,0.94,17.773,2.711,26.249C28.466,249.691,0.5,285.866,0.5,328.591c0,52.918,42.895,95.813,95.813,95.813l320.174-0.398
		c52.472,0,95.014-42.542,95.014-95.015C511.5,278.73,472.468,237.607,423.064,234.227z M341.167,338.834l-42.588,42.587
		l-42.583-42.587l-42.575,42.587l-42.587-42.587l42.587-42.579l-42.587-42.579l42.587-42.588l42.575,42.588l42.583-42.588
		l42.588,42.588l-42.588,42.579L341.167,338.834z"></path></g></svg>